<svg width="24" height="24" viewBox="0 0 24 24" fill="none" xmlns="http://www.w3.org/2000/svg">
<path d="M6.46967 17.4697C6.17678 17.7626 6.17678 18.2374 6.46967 18.5303C6.76256 18.8232 7.23744 18.8232 7.53033 18.5303L6.46967 17.4697ZM18.3566 7.3934C18.3566 6.97918 18.0208 6.6434 17.6066 6.6434L10.8566 6.6434C10.4424 6.6434 10.1066 6.97918 10.1066 7.3934C10.1066 7.80761 10.4424 8.1434 10.8566 8.1434H16.8566V14.1434C16.8566 14.5576 17.1924 14.8934 17.6066 14.8934C18.0208 14.8934 18.3566 14.5576 18.3566 14.1434L18.3566 7.3934ZM7.53033 18.5303L18.1369 7.92373L17.0763 6.86307L6.46967 17.4697L7.53033 18.5303Z" fill="#FFB800"/>
<circle cx="12" cy="12" r="10.75" stroke="#FFB800" stroke-width="1.5"/>
</svg>
